#N canvas 946 265 550 375 10;
#X declare -path ./SyncJams/pure-data;
#X obj 13 58 syncjams \$0/sync \, namespace my-drum-circle;
#X obj 19 289 hsl 128 15 0 127 0 0 /myslider/1 /myslider/1/r /myslider/1
-2 -8 0 10 -262144 -1 -1 5000 0;
#X obj 19 323 hsl 128 15 0 127 0 0 /myslider/2 /myslider/2/r /myslider/2
-2 -8 0 10 -262144 -1 -1 2300 1;
#X obj 16 345 tgl 15 0 /mytoggle/1 /mytoggle/1/r /mytoggle/1 17 7 0
10 -262144 -1 -1 1 1;
#X obj 180 289 syncjams-gui-connector \$0/sync /myslider/1 /myslider/1/r
;
#X obj 13 102 route tick;
#X floatatom 13 124 5 0 0 0 - - -, f 5;
#X text 54 123 <- here is the metronome/clock/tick to use to drive
a synth, f 36;
#X obj 13 80 syncjams-state /BPM;
#X floatatom 124 102 5 0 0 0 - - -, f 5;
#X text 160 101 <- network specified BPM;
#X text 10 248 User interface elements synched to all patches on the
network:, f 63;
#X msg 402 172 set-state /BPM \$1;
#X floatatom 402 151 5 30 300 0 - bpm-r -, f 5;
#X obj 402 194 s \$0/sync;
#N canvas 2 48 450 300 init 0;
#X obj 18 15 loadbang;
#X msg 18 37 \; bpm-r set 180;
#X obj 228 13 declare -path ./SyncJams/pure-data;
#X connect 0 0 1 0;
#X restore 490 14 pd init;
#X obj 180 311 syncjams-gui-connector \$0/sync /myslider/2 /myslider/2/r
;
#X obj 180 333 syncjams-gui-connector \$0/sync /mytoggle/1 /mytoggle/1/r
;
#X text 11 6 Simply instantiating the SyncJams instance like this on
multiple devices will make it sync with other instances on the same
LAN with the same 'namespace':;
#X text 275 59 <- all "my-drum-circle" SyncJams will sync.;
#X text 399 116 Send a BPM change to the network, f 18;
#X connect 0 0 8 0;
#X connect 5 0 6 0;
#X connect 8 0 5 0;
#X connect 8 1 9 0;
#X connect 12 0 14 0;
#X connect 13 0 12 0;
